#tb 0: 1/25
#media_type 0: video
#codec_id 0: rawvideo
#dimensions 0: 176x144
#sar 0: 0/1
0,          0,          0,        1,    38016, 0x3ae838ee
0,          1,          1,        1,    38016, 0x9ed7e141
0,          2,          2,        1,    38016, 0x354e83ed
0,          3,          3,        1,    38016, 0x96754ff4
0,          4,          4,        1,    38016, 0x2a013a3c
0,          5,          5,        1,    38016, 0x57ab4cf2
0,          6,          6,        1,    38016, 0x55037493
0,          7,          7,        1,    38016, 0x910b8920
0,          8,          8,        1,    38016, 0x457785a1
0,          9,          9,        1,    38016, 0x9d6864ad
0,         10,         10,        1,    38016, 0xe80131ce
0,         11,         11,        1,    38016, 0x4cd7f487
0,         12,         12,        1,    38016, 0x030df59a
0,         13,         13,        1,    38016, 0x6ea60426
0,         14,         14,        1,    38016, 0x35311f71
0,         15,         15,        1,    38016, 0x731450d8
0,         16,         16,        1,    38016, 0x29368c47
0,         17,         17,        1,    38016, 0x006292b0
0,         18,         18,        1,    38016, 0x961493b1
0,         19,         19,        1,    38016, 0xb2e99a07
0,         20,         20,        1,    38016, 0xa52f98be
0,         21,         21,        1,    38016, 0x8c0a8f70
0,         22,         22,        1,    38016, 0xdc5b992c
0,         23,         23,        1,    38016, 0xa4a49787
0,         24,         24,        1,    38016, 0x7a959608
0,         25,         25,        1,    38016, 0xc9619c0a
0,         26,         26,        1,    38016, 0xb5519a7e
0,         27,         27,        1,    38016, 0x05ea9d9b
0,         28,         28,        1,    38016, 0xf73fac90
0,         29,         29,        1,    38016, 0x0cd4b3d8
0,         30,         30,        1,    38016, 0xb3119df6
0,         31,         31,        1,    38016, 0xb8db5d78
0,         32,         32,        1,    38016, 0xfb633ee0
0,         33,         33,        1,    38016, 0xed1c8935
0,         34,         34,        1,    38016, 0x421fedd1
0,         35,         35,        1,    38016, 0xa4b84473
0,         36,         36,        1,    38016, 0x25598f81
0,         37,         37,        1,    38016, 0x92de1dd7
0,         38,         38,        1,    38016, 0x776b68c5
0,         39,         39,        1,    38016, 0x07b49a7a
0,         40,         40,        1,    38016, 0x883ccd79
0,         41,         41,        1,    38016, 0xb351e0fc
0,         42,         42,        1,    38016, 0x5577d53b
0,         43,         43,        1,    38016, 0xffd9ef7d
0,         44,         44,        1,    38016, 0x38c1fc8b
0,         45,         45,        1,    38016, 0xb9abf3e6
0,         46,         46,        1,    38016, 0x2191b0d6
0,         47,         47,        1,    38016, 0x313397a3
0,         48,         48,        1,    38016, 0x96bca02a
0,         49,         49,        1,    38016, 0xd39ac859
0,         50,         50,        1,    38016, 0xfb31e18f
0,         51,         51,        1,    38016, 0xe182b468
0,         52,         52,        1,    38016, 0x8af7dfd6
0,         53,         53,        1,    38016, 0x7c19fd4f
0,         54,         54,        1,    38016, 0xa8373bae
0,         55,         55,        1,    38016, 0x91055016
0,         56,         56,        1,    38016, 0x432b5d52
0,         57,         57,        1,    38016, 0x81301b3f
0,         58,         58,        1,    38016, 0x0d6c2367
0,         59,         59,        1,    38016, 0xf0023ac2
0,         60,         60,        1,    38016, 0xb9f33791
0,         61,         61,        1,    38016, 0xdab62201
0,         62,         62,        1,    38016, 0xfab7cfdd
0,         63,         63,        1,    38016, 0xfbb2a78f
0,         64,         64,        1,    38016, 0xe317c687
0,         65,         65,        1,    38016, 0xe4f5d939
0,         66,         66,        1,    38016, 0x022dda5b
0,         67,         67,        1,    38016, 0x8b5cdf2c
0,         68,         68,        1,    38016, 0x3dfec699
0,         69,         69,        1,    38016, 0x9484a75c
0,         70,         70,        1,    38016, 0x763a911b
0,         71,         71,        1,    38016, 0xb1fb7cc8
0,         72,         72,        1,    38016, 0x56bf7f7b
0,         73,         73,        1,    38016, 0x87567e3e
0,         74,         74,        1,    38016, 0x1aa1209e
0,         75,         75,        1,    38016, 0xe2b0da25
0,         76,         76,        1,    38016, 0xd250c706
0,         77,         77,        1,    38016, 0xbea1be9d
0,         78,         78,        1,    38016, 0x02f0e6fb
0,         79,         79,        1,    38016, 0xd18d382b
0,         80,         80,        1,    38016, 0xd0fa57f3
0,         81,         81,        1,    38016, 0x873b43e3
0,         82,         82,        1,    38016, 0x75b33855
0,         83,         83,        1,    38016, 0xcabbe932
0,         84,         84,        1,    38016, 0xeded9c0f
0,         85,         85,        1,    38016, 0x86b0b9ec
0,         86,         86,        1,    38016, 0xb461e10d
0,         87,         87,        1,    38016, 0x6702dbbe
0,         88,         88,        1,    38016, 0xb3e47c8c
0,         89,         89,        1,    38016, 0xd71333ee
0,         90,         90,        1,    38016, 0x15c3f15d
0,         91,         91,        1,    38016, 0xa7e6bb4e
0,         92,         92,        1,    38016, 0x5d5bd15b
0,         93,         93,        1,    38016, 0x2476f6b0
0,         94,         94,        1,    38016, 0xbee21b05
0,         95,         95,        1,    38016, 0x8172d7b9
0,         96,         96,        1,    38016, 0x4893b4b2
0,         97,         97,        1,    38016, 0xfda7ed23
0,         98,         98,        1,    38016, 0xc1ff4cb4
0,         99,         99,        1,    38016, 0x9fdc8cc4
